<svg width="31" height="25" viewBox="0 0 31 25" fill="none" xmlns="http://www.w3.org/2000/svg">
<path d="M3.08772 24.7018C2.2386 24.7018 1.5117 24.3994 0.907018 23.7947C0.302339 23.1901 0 22.4632 0 21.614V3.08772C0 2.2386 0.302339 1.5117 0.907018 0.907018C1.5117 0.302339 2.2386 0 3.08772 0H12.3509L15.4386 3.08772H27.7895C28.6386 3.08772 29.3655 3.39006 29.9702 3.99474C30.5749 4.59941 30.8772 5.32632 30.8772 6.17544V21.614C30.8772 22.4632 30.5749 23.1901 29.9702 23.7947C29.3655 24.3994 28.6386 24.7018 27.7895 24.7018H3.08772ZM3.08772 21.614H27.7895V6.17544H14.1649L11.0772 3.08772H3.08772V21.614Z" fill="black"/>
</svg>
