<svg width="20" height="21" viewBox="0 0 20 21" fill="none" xmlns="http://www.w3.org/2000/svg">
<mask id="mask0_1076_7477" style="mask-type:alpha" maskUnits="userSpaceOnUse" x="0" y="0" width="20" height="21">
<rect y="0.5" width="20" height="20" fill="#D9D9D9"/>
</mask>
<g mask="url(#mask0_1076_7477)">
<path d="M16.3333 18.5783L11.0833 13.2212C10.6667 13.5613 10.1875 13.8306 9.64583 14.029C9.10417 14.2274 8.52778 14.3266 7.91667 14.3266C6.40278 14.3266 5.12153 13.7916 4.07292 12.7216C3.02431 11.6516 2.5 10.3442 2.5 8.79943C2.5 7.25464 3.02431 5.94725 4.07292 4.87723C5.12153 3.80722 6.40278 3.27222 7.91667 3.27222C9.43056 3.27222 10.7118 3.80722 11.7604 4.87723C12.809 5.94725 13.3333 7.25464 13.3333 8.79943C13.3333 9.42301 13.2361 10.0112 13.0417 10.5639C12.8472 11.1166 12.5833 11.6055 12.25 12.0307L17.5 17.3879L16.3333 18.5783ZM7.91667 12.626C8.95833 12.626 9.84375 12.2539 10.5729 11.5099C11.3021 10.7658 11.6667 9.86235 11.6667 8.79943C11.6667 7.7365 11.3021 6.83302 10.5729 6.08897C9.84375 5.34492 8.95833 4.9729 7.91667 4.9729C6.875 4.9729 5.98958 5.34492 5.26042 6.08897C4.53125 6.83302 4.16667 7.7365 4.16667 8.79943C4.16667 9.86235 4.53125 10.7658 5.26042 11.5099C5.98958 12.2539 6.875 12.626 7.91667 12.626Z" fill="#696969"/>
</g>
</svg>
