<svg width="25" height="31" viewBox="0 0 25 31" fill="none" xmlns="http://www.w3.org/2000/svg">
<path fill-rule="evenodd" clip-rule="evenodd" d="M2.70083 0.254883H16.7643L24.3075 7.8634V27.4973C24.3075 29.0019 23.0983 30.2215 21.6066 30.2215H2.70083C1.2092 30.2215 0 29.0019 0 27.4973V2.97913C0 1.47457 1.2092 0.254883 2.70083 0.254883ZM13.5044 2.97978H2.70259V27.498H21.6084V11.1527H16.2052C14.7136 11.1527 13.5044 9.93302 13.5044 8.42846V2.97978ZM16.2052 3.54246V8.42846H21.0492L16.2052 3.54246ZM6.75068 22.0488V19.3246H14.8532V22.0488H6.75068ZM6.75068 13.8769V16.6011H17.554V13.8769H6.75068Z" fill="black"/>
</svg>
