<svg width="40" height="32" viewBox="0 0 40 32" fill="none" xmlns="http://www.w3.org/2000/svg">
<path fill-rule="evenodd" clip-rule="evenodd" d="M38.2268 27.4433C39.4692 25.1686 40 21.5008 40 15.5342C40 9.59141 39.4742 5.94485 38.2186 3.60913C36.9602 1.18366 35.4678 0.413803 32.506 0.229017C30.484 0.0825977 25.4587 0 20.0048 0C14.5393 0 9.51172 0.0825672 7.47455 0.230164C4.5293 0.414244 3.03656 1.1858 1.76715 3.61801C0.529789 5.94566 0 9.61004 0 15.5559C0 21.4681 0.532354 25.1509 1.77802 27.4709C3.03093 29.8718 4.49988 30.634 7.47019 30.8569C9.60501 30.9904 14.9171 31.0792 20.0048 31.0792C25.0812 31.0792 30.3907 30.9904 32.506 30.8584C35.5036 30.6341 36.9723 29.8706 38.2268 27.4433ZM32.2775 4.1063C34.1301 4.22197 34.4737 4.39987 35.061 5.5354C35.9159 7.11726 36.364 10.213 36.364 15.5561C36.364 20.8587 35.9135 23.9715 35.0649 25.5259C34.4756 26.6649 34.1345 26.8423 32.2733 26.9817C30.2711 27.1064 25.0131 27.1945 20.0052 27.1945C14.986 27.1945 9.72534 27.1065 7.70405 26.9802C5.86583 26.8422 5.51972 26.6626 4.94351 25.5585C4.08919 23.9671 3.63672 20.8369 3.63672 15.5343C3.63672 10.2349 4.08679 7.1219 4.93653 5.52333C5.52171 4.40224 5.87025 4.22209 7.70416 4.10742C9.64595 3.96682 14.6263 3.88503 20.0052 3.88503C25.3726 3.88503 30.3506 3.96684 32.2775 4.1063ZM16.3633 9.71243L25.4542 15.5398L16.3633 21.3671V9.71243Z" fill="black"/>
</svg>
